# xmcd
#
# Track frame offsets:
#	150
#	13367
#	27239
#	40992
#	53911
#	67506
#	79749
#	92617
#	105265
#	118529
#	132172
#	146055
#	159110
#	173031
#	187883
#	202039
#	215203
#	230247
#	244858
#	258533
#	272467
#	286970
#	300718
#	313764
#
# Disc length: 4359 seconds
# Revision: 0
# Processed by: cddbd v1.5.2PL0 Copyright (c) Steve Scherf et al.
# Submitted via: dBpowerAMP V12.0
#
DISCID=52110518
DTITLE=Reverend J M Gates - Complete Recorded Works In Chronological Order - Vol 9
DYEAR=1996
DGENRE=Gospel
TTITLE0=Wolf Cat And His Catcher
TTITLE1=New Dead Cat On The Line
TTITLE2=So Glad I'm Here In Jesus' Name - Part 1
TTITLE3=So Glad I'm Here In Jesus' Name - Part 2
TTITLE4=This Heart Of Mine - Part 1
TTITLE5=This Heart Of Mine - Part 2
TTITLE6=The Racket Train - Part 1
TTITLE7=The Racket Train - Part 2
TTITLE8=Hell Without Fire
TTITLE9=Will Hell Be Your Santa Claus?
TTITLE10=Baptist World Alliance In Atlanta Georgia
TTITLE11=Smoking Woman In The Street
TTITLE12=Job And His God
TTITLE13=Travelin' On
TTITLE14=I'll Fly Away
TTITLE15=It's What You Think And Not What You Know
TTITLE16=Men And Women Talk Too Much
TTITLE17=Joe Louis' Wrist And His Fist
TTITLE18=Hitler And Hell
TTITLE19=When The War Is Over
TTITLE20=Guide Me While I Run This Race
TTITLE21=My Footsteps Is Numbered
TTITLE22=Not A Dog Shall Move His Tongue
TTITLE23=Gettin' Ready For Christmas Day
EXTD=
EXTT0=
EXTT1=
EXTT2=
EXTT3=
EXTT4=
EXTT5=
EXTT6=
EXTT7=
EXTT8=
EXTT9=
EXTT10=
EXTT11=
EXTT12=
EXTT13=
EXTT14=
EXTT15=
EXTT16=
EXTT17=
EXTT18=
EXTT19=
EXTT20=
EXTT21=
EXTT22=
EXTT23=
PLAYORDER=
